<svg id="圖層_1" data-name="圖層 1" xmlns="http://www.w3.org/2000/svg" viewBox="0 0 830.72 348.43"><defs><style>.cls-1{fill:#fff;}</style></defs><title>pk-times</title><path class="cls-1" d="M832.33,334c2.08.41,3.61,1.32,3.92,3.5a3.76,3.76,0,0,1-2.58,4.43,54.93,54.93,0,0,1-6.09,1.57L776.93,355l-2.18.48c-2.78.6-4.83-.42-5.33-3.18-.48-2.61,1.11-4.11,3.68-4.69,8.08-1.83,16.14-3.75,24.22-5.59q16.47-3.76,32.95-7.47C831,334.39,831.68,334.15,832.33,334Z" transform="translate(-5.59 -7.23)"/><path class="cls-1" d="M821.67,298c2.44.06,4.07,1.15,4.55,3.33.57,2.59-1.19,3.91-3.34,4.64-5.41,1.82-10.84,3.57-16.28,5.31q-19.33,6.2-38.67,12.37a12.68,12.68,0,0,1-2.13.64c-2.24.3-4.41.1-5.13-2.51s.53-4.26,3.07-5.07c5.68-1.81,11.34-3.68,17-5.52L819,298.84C819.91,298.54,820.87,298.26,821.67,298Z" transform="translate(-5.59 -7.23)"/><path class="cls-1" d="M812.74,266.95c0,2.65-1.89,3.52-3.9,4.37q-22.17,9.3-44.32,18.64c-3.08,1.3-6.15,2.64-9.26,3.88-2.46,1-4.87.93-5.9-1.92-1-2.64.33-4.38,3-5.49,18-7.51,35.94-15.14,53.93-22.68C809.93,262.2,812.73,263.68,812.74,266.95Z" transform="translate(-5.59 -7.23)"/><path class="cls-1" d="M777,201.49c.14,1.66-.88,2.69-2.2,3.54Q750,220.91,725.12,236.81c-2.42,1.55-4.62,1.4-6.12-1s-.34-4.37,2-5.86q24.42-15.54,48.77-31.18c1.74-1.11,3.47-1.92,5.55-.82C776.75,198.73,777.09,200,777,201.49Z" transform="translate(-5.59 -7.23)"/><path class="cls-1" d="M739.17,265.31a3.77,3.77,0,0,1-4-2.69c-.82-2.31.43-3.88,2.3-4.9,4-2.21,8.15-4.28,12.22-6.42l40.27-21.13c2.26-1.19,4.51-1.27,5.87,1.1s.53,4.55-2.06,5.83c-.45.22-.86.51-1.3.74q-16.66,8.78-33.32,17.54-8.24,4.33-16.52,8.61C741.53,264.57,740.5,265.34,739.17,265.31Z" transform="translate(-5.59 -7.23)"/><path class="cls-1" d="M703.33,211.45c-1.95.21-3-1.05-3.83-2.48-1-1.76.09-3.14,1.42-4.19q8.65-6.81,17.37-13.54,14-10.84,28.09-21.63a27.19,27.19,0,0,1,2.46-1.69c2.16-1.31,4.14-.95,5.55,1.07s.61,4.09-1.21,5.56c-3.39,2.73-6.86,5.36-10.31,8l-35.23,27C706.35,210.57,705.14,211.71,703.33,211.45Z" transform="translate(-5.59 -7.23)"/><path class="cls-1" d="M730.51,142.73a3.86,3.86,0,0,1-1.59,3.31q-21.73,19.9-43.43,39.83c-2,1.87-4.3,2.35-6.26.26s-1.06-4.39.9-6.18q21.31-19.52,42.67-39c1.45-1.32,3-2.83,5.26-1.55C729.42,140.16,730.54,141.1,730.51,142.73Z" transform="translate(-5.59 -7.23)"/><path class="cls-1" d="M634.07,144.81a3.82,3.82,0,0,1-3.89-2.18c-1-1.71-.14-3.18.83-4.48,3.28-4.37,6.62-8.7,10-13,8.45-10.9,16.95-21.75,25.34-32.69,1.74-2.27,3.52-3.67,6.2-1.77s2,4.16.28,6.41q-17.65,22.86-35.28,45.73C636.58,144,635.56,145.15,634.07,144.81Z" transform="translate(-5.59 -7.23)"/><path class="cls-1" d="M659.07,165a3.62,3.62,0,0,1-3.69-2.26,3.9,3.9,0,0,1,.87-4.48q4.23-4.72,8.52-9.38,15.38-16.76,30.78-33.5c1.9-2.07,4.1-3.17,6.48-1.1s1.44,4.38-.45,6.44Q682,142,662.47,163.33A4.34,4.34,0,0,1,659.07,165Z" transform="translate(-5.59 -7.23)"/><path class="cls-1" d="M607.08,126.87c-3.58,0-5.06-3.15-2.91-6.68,3.7-6,7.53-12,11.36-17.94q9.06-14.1,18.19-28.16c.61-.94,1.18-1.9,1.82-2.82,1.39-2,3.24-2.81,5.46-1.53,2.42,1.4,2.56,3.55,1.19,5.76Q636.3,85,630.28,94.4q-9,14.12-18.14,28.17C610.91,124.44,610.15,127.07,607.08,126.87Z" transform="translate(-5.59 -7.23)"/><path class="cls-1" d="M575.87,40.85c-1.44,3.58-2.94,7.4-4.52,11.19q-8.82,21.15-17.7,42.29a12.25,12.25,0,0,1-1,2c-1.33,2-3.17,2.87-5.43,1.73s-2.57-2.94-1.69-5.08q5.17-12.59,10.4-25.16,5.89-14.1,11.87-28.16a7.12,7.12,0,0,1,1.33-2.22,3.66,3.66,0,0,1,4.45-.76C575.28,37.45,575.89,38.82,575.87,40.85Z" transform="translate(-5.59 -7.23)"/><path class="cls-1" d="M578.64,111.34c-3.33,0-4.88-2.8-3.2-6q7-13.58,14.08-27.11c4.09-7.81,8.26-15.57,12.34-23.38,1.33-2.54,3-4.61,6.09-3s2.32,4.26,1,6.72Q596.09,83.25,583.13,108C582.18,109.8,581,111.4,578.64,111.34Z" transform="translate(-5.59 -7.23)"/><path class="cls-1" d="M504,19.27c-.87,4.07-1.67,7.95-2.53,11.81q-4.91,22-9.85,43.94c-.16.73-.31,1.46-.51,2.18-.67,2.41-2.46,3.61-4.75,3.17-2.51-.49-3.74-2.37-3.15-5q3.36-15.26,6.79-30.51c1.91-8.47,3.87-16.92,5.81-25.38.6-2.61,1.94-4.34,4.92-3.9C502.94,15.85,503.74,17.45,504,19.27Z" transform="translate(-5.59 -7.23)"/><path class="cls-1" d="M518.39,88.07c-3.1-.08-4.53-2.41-3.43-5.88,3.7-11.72,7.46-23.41,11.21-35.11,2-6.15,4-12.29,5.93-18.45.86-2.71,2.12-5.06,5.49-4.09,3.61,1,2.92,3.93,2.12,6.45C535,46,530.12,61,525.32,76c-.91,2.84-1.65,5.73-2.66,8.54C522,86.5,520.81,88.12,518.39,88.07Z" transform="translate(-5.59 -7.23)"/><path class="cls-1" d="M466.65,16c-1.58,11.51-3.22,23.43-4.85,35.35-.89,6.51-1.81,13-2.61,19.53-.35,2.89-1.48,4.87-4.69,4.38s-3.44-2.71-3.08-5.56c2.32-18.57,4.59-37.15,7.44-55.65a4.93,4.93,0,0,1,3-4.26c1.5-.65,2.69.09,3.76.92C467.33,12,466.58,13.89,466.65,16Z" transform="translate(-5.59 -7.23)"/><path class="cls-1" d="M63.45,303.65c-1.62-.08-3.27-1-5-1.68Q34.08,292.33,9.69,282.7c-2.19-.86-4.19-1.92-4.1-4.65s3-4.33,6.17-3.12c10.17,4,20.31,8,30.45,12,7.61,3,15.19,6.11,22.79,9.15,2,.79,3.13,2.15,2.71,4.3S66,303.67,63.45,303.65Z" transform="translate(-5.59 -7.23)"/><path class="cls-1" d="M299.09,87.67c-.23,2.33-1.22,3.92-3.29,4.31-2.49.47-4-1-4.77-3.24-1.65-4.94-3.19-9.91-4.77-14.88l-12-37.66c-.15-.47-.38-.93-.49-1.41-.64-2.65,0-4.84,2.81-5.61s4.13.89,4.9,3.31Q287.7,52,293.95,71.58c1.44,4.5,2.92,9,4.38,13.47C298.63,86,298.88,87,299.09,87.67Z" transform="translate(-5.59 -7.23)"/><path class="cls-1" d="M330.44,79.17a4.36,4.36,0,0,1-3.23,4c-2,.61-3.36-.32-4.32-2-1.31-2.32-1.49-5-2.07-7.49C317.16,57.59,313.61,41.49,310,25.4c-.63-2.77-.85-5.35,2.57-6.3s4.58,1.34,5.21,4.16Q323,46.84,328.32,70.41C329,73.31,329.71,76.18,330.44,79.17Z" transform="translate(-5.59 -7.23)"/><path class="cls-1" d="M394.22,62.52c0,2.37,0,4.73,0,7.09s-1.08,4.07-3.77,4.13-3.84-1.31-4-3.87c-.18-3.6-.54-7.2-.63-10.81-.37-14.8-1.2-29.58-2.12-44.35a17.34,17.34,0,0,1,0-2.61c.24-2.62,1.7-4.25,4.32-4.17s3.6,1.74,3.72,4.25c.38,8,1,15.9,1.25,23.85.22,8.82.05,17.66.05,26.49Z" transform="translate(-5.59 -7.23)"/><path class="cls-1" d="M76.76,274.67c-.64-.28-1.67-.7-2.67-1.2q-24.33-12.2-48.65-24.41c-2.34-1.17-4.55-2.44-3.64-5.61.78-2.72,3.53-3.49,6.72-1.89q21,10.57,42,21.19c3,1.52,6,3,9,4.56A3.53,3.53,0,0,1,81.27,272C80.59,273.83,79.22,274.83,76.76,274.67Z" transform="translate(-5.59 -7.23)"/><path class="cls-1" d="M361.93,72.39a3.87,3.87,0,0,1-3.44,4.8c-3,.43-4.15-1.7-4.5-4.29q-2.09-15.48-4.12-31c-.91-6.85-1.83-13.71-2.7-20.56a51.17,51.17,0,0,1-.39-5.56c0-2.09.83-3.68,3.11-3.92,2.46-.26,4.14.8,4.51,3.36.75,5.16,1.42,10.33,2.12,15.49q2.63,19.47,5.25,38.95C361.87,70.4,361.86,71.15,361.93,72.39Z" transform="translate(-5.59 -7.23)"/><path class="cls-1" d="M133.09,195.71c-1.62.23-2.71-.89-3.81-1.87q-19.91-17.76-39.79-35.57c-.65-.58-1.27-1.2-1.87-1.83-1.67-1.74-2.26-3.62-.43-5.59s3.85-2,5.88-.18c6.41,5.71,12.84,11.39,19.24,17.11,7.78,7,15.53,14,23.31,21,1.43,1.28,2.27,2.74,1.43,4.6A3.8,3.8,0,0,1,133.09,195.71Z" transform="translate(-5.59 -7.23)"/><path class="cls-1" d="M160.16,168.94a3.94,3.94,0,0,1-2.59,3.79c-2.12.85-3.59,0-4.95-1.49l-14.51-15.51q-11.71-12.52-23.41-25c-1.84-2-3.3-4.06-.86-6.42s4.72-1.19,6.73,1q18.86,20.12,37.74,40.22A6.06,6.06,0,0,1,160.16,168.94Z" transform="translate(-5.59 -7.23)"/><path class="cls-1" d="M429.12,17.76Q428,43.29,426.88,68.82c-.13,2.83-1.56,4.35-4.49,4.25s-3.71-2.12-3.6-4.59Q419.6,50.21,420.5,32c.32-6.71.73-13.41,1-20.12.1-2.82,1.21-4.65,4.13-4.6,3.14,0,3.76,2.26,3.65,4.93-.08,1.86,0,3.73,0,5.6Z" transform="translate(-5.59 -7.23)"/><path class="cls-1" d="M97.85,243.07c-.18,3.43-3.61,4.86-6.9,2.83q-16.5-10.17-33-20.37c-4.65-2.88-9.25-5.82-13.92-8.66-2.45-1.49-5.05-3-3-6.34s4.55-2,7.06-.49Q65.53,220.81,83,231.55L95,239C96.57,239.95,97.88,241,97.85,243.07Z" transform="translate(-5.59 -7.23)"/><path class="cls-1" d="M239.31,112.6c0,2.39-.76,3.82-2.47,4.33-2,.6-4,.33-5.1-1.86-1.68-3.19-3.41-6.35-5.09-9.54Q216.3,85.92,206,66.3A11.35,11.35,0,0,1,204.82,64c-.57-2.25-.26-4.22,2.16-5.3s3.9.11,5,1.93c1.65,2.77,3.11,5.67,4.62,8.52Q227.3,89.42,238,109.71C238.56,110.8,239,112,239.31,112.6Z" transform="translate(-5.59 -7.23)"/><path class="cls-1" d="M112.31,220.66a8.13,8.13,0,0,1-3.08-1.44Q86.85,202.43,64.4,185.71c-2.13-1.59-3.55-3.48-1.69-6s4.24-2.08,6.52-.37q22.56,16.87,45.13,33.72c1.66,1.24,2.62,2.64,1.91,4.76C115.62,219.8,114,220.32,112.31,220.66Z" transform="translate(-5.59 -7.23)"/><path class="cls-1" d="M207.2,133.55c-1.66.16-2.76-1-3.67-2.42q-15.34-23.64-30.66-47.29c-1.46-2.25-1.29-4.34,1-5.82,2.52-1.62,4.47-.54,6,1.76L204,117c2.23,3.44,4.54,6.84,6.64,10.36C212.39,130.36,210.68,133.49,207.2,133.55Z" transform="translate(-5.59 -7.23)"/><path class="cls-1" d="M184.65,148.24c.11,1.82-.59,3.25-2.35,3.79-2.15.65-3.84-.23-5.19-2q-7.17-9.3-14.4-18.56-9.18-11.74-18.39-23.46c-.61-.78-1.16-1.61-1.78-2.39-1.7-2.14-1.49-4.27.52-5.88s4.14-1,5.77,1.08q7.58,9.69,15.2,19.36,9.21,11.74,18.39,23.49C183.46,145,184.83,146.27,184.65,148.24Z" transform="translate(-5.59 -7.23)"/><path class="cls-1" d="M268.46,98.44c.25,2.46-.55,3.66-2,4.4a3.59,3.59,0,0,1-4.47-.61,7.79,7.79,0,0,1-1.66-2.44Q249.67,74.33,239,48.84c-.78-1.87-1-3.64.27-5.28,2-2.51,5.52-1.58,7,1.91,2.71,6.28,5.28,12.62,7.93,18.92q6.79,16.16,13.59,32.32A16.3,16.3,0,0,1,268.46,98.44Z" transform="translate(-5.59 -7.23)"/></svg>