<?xml version="1.0" encoding="UTF-8"?>
<svg width="20px" height="25px" viewBox="0 0 20 25" version="1.1" xmlns="http://www.w3.org/2000/svg" xmlns:xlink="http://www.w3.org/1999/xlink">
    <!-- Generator: Sketch 49.1 (51147) - http://www.bohemiancoding.com/sketch -->
    <title>帳號密碼_red</title>
    <desc>Created with Sketch.</desc>
    <defs>
        <polygon id="path-1" points="0.0036036036 0.00733333333 19.9880751 0.00733333333 19.9880751 21.9706422 0.0036036036 21.9706422"></polygon>
    </defs>
    <g id="帳號密碼_red" stroke="none" stroke-width="1" fill="none" fill-rule="evenodd">
        <g id="Page-1" transform="translate(0.000000, 2.000000)">
            <path d="M14.6510288,7.23526689 L8.89947835,13.0756663 L6.35426723,10.4475361 C6.04893679,10.1328663 5.55054878,10.1272937 5.23896385,10.431685 C4.92663946,10.7367883 4.91952228,11.2393188 5.22318896,11.5523786 L8.32924064,14.7598182 C8.33081196,14.762233 8.33395462,14.762233 8.33552595,14.764524 C8.33706646,14.7662268 8.33792915,14.7693536 8.33946967,14.7709326 C8.39076888,14.8216128 8.45309819,14.8517052 8.51219242,14.8858223 C8.54143143,14.9025093 8.56586402,14.9286389 8.59584248,14.9404963 C8.69126209,14.9801861 8.79225838,15 8.8939633,15 C8.99418933,15 9.09432292,14.9801861 9.18894147,14.9421681 C9.2197518,14.9294748 9.24332171,14.9041192 9.27259153,14.8882371 C9.33168576,14.8550179 9.39330643,14.8256066 9.44371214,14.7756384 C9.44528347,14.7740904 9.44611535,14.7709326 9.44842612,14.7693536 C9.45008988,14.7669388 9.45240066,14.7662268 9.45480386,14.764524 L15.771878,8.34967582 C16.0786566,8.03813295 16.0755139,7.53724335 15.7655003,7.22898216 C15.4571505,6.92143303 14.956236,6.92384785 14.6510288,7.23526689" id="Fill-1" fill="#FF3333"></path>
            <g id="Group-5">
                <mask id="mask-2" fill="white">
                    <use xlink:href="#path-1"></use>
                </mask>
                <g id="Clip-4"></g>
                <path d="M9.92867568,20.4054033 C8.51645345,20.2677811 1.53681381,13.5320533 1.53681381,4.82671444 C1.53681381,3.88642833 5.51978679,2.34945333 9.92714414,1.57969778 C14.4036607,2.38071167 18.4496967,3.91851167 18.4496967,4.82671444 C18.4496967,13.5148811 11.3623694,20.2631367 9.92867568,20.4054033 M10.0593964,0.0152838889 C9.97396096,0.000372777778 9.88714414,-0.00033 9.80173874,0.0144588889 C7.50245946,0.407128333 -3.003003e-06,1.91452556 -3.003003e-06,4.82671444 C-3.003003e-06,14.2571672 7.49624324,21.9706422 9.92936637,21.9706422 C12.3202973,21.9706422 19.9880751,14.0632006 19.9880751,4.82671444 C19.9872042,2.05535611 13.0444114,0.538547778 10.0593964,0.0152838889" id="Fill-3" fill="#FF3333" mask="url(#mask-2)"></path>
            </g>
        </g>
    </g>
</svg>