<?xml version="1.0" encoding="UTF-8"?>
<svg width="20px" height="25px" viewBox="0 0 20 25" version="1.1" xmlns="http://www.w3.org/2000/svg" xmlns:xlink="http://www.w3.org/1999/xlink">
    <!-- Generator: Sketch 49.1 (51147) - http://www.bohemiancoding.com/sketch -->
    <title>報表_red</title>
    <desc>Created with Sketch.</desc>
    <defs>
        <polygon id="path-1" points="0.00390243902 0.0145094453 19.9804358 0.0145094453 19.9804358 21.9683985 0.00390243902 21.9683985"></polygon>
    </defs>
    <g id="報表_red" stroke="none" stroke-width="1" fill="none" fill-rule="evenodd">
        <g id="Page-1" transform="translate(0.000000, 2.000000)">
            <g id="Group-3">
                <mask id="mask-2" fill="white">
                    <use xlink:href="#path-1"></use>
                </mask>
                <g id="Clip-2"></g>
                <path d="M17.4830049,20.2795109 L2.4976065,20.2795109 C2.0388748,20.2795109 1.66502114,19.9012561 1.66502114,19.4352321 L1.66502114,2.54767586 C1.66502114,2.08241049 2.0388748,1.70323208 2.4976065,1.70323208 L13.3204033,1.70323208 L13.3204033,6.76956492 C13.3204033,7.23558891 13.6924358,7.61384378 14.152826,7.61384378 L18.3154276,7.61384378 L18.3154276,19.4352321 C18.3154276,19.9012561 17.942452,20.2795109 17.4830049,20.2795109 Z M14.9853789,2.8972021 L17.9708098,5.92512114 L14.9853789,5.92512114 L14.9853789,2.8972021 Z M19.7365333,5.32821859 L14.7422569,0.262776312 C14.665639,0.18510015 14.5749398,0.122596402 14.4733138,0.0803445277 C14.3734764,0.0373010495 14.2643382,0.0145094453 14.152826,0.0145094453 L2.4976065,0.0145094453 C1.12053333,0.0145094453 -1.95121951e-05,1.15102219 -1.95121951e-05,2.54767586 L-1.95121951e-05,19.4352321 C-1.95121951e-05,20.8317538 1.12053333,21.9683985 2.4976065,21.9683985 L17.4830049,21.9683985 C18.8598829,21.9683985 19.9804358,20.8317538 19.9804358,19.4352321 L19.9804358,5.92512114 C19.9804358,5.70132804 19.8930211,5.48604468 19.7365333,5.32821859 Z" id="Fill-1" fill="#FF3333" mask="url(#mask-2)"></path>
            </g>
            <g id="Group-10" transform="translate(3.000000, 5.000000)" fill="#FF3333">
                <path d="M0.928567857,1.71279777 L6.41435357,1.71279777 C6.918925,1.71279777 7.32853214,1.32943287 7.32853214,0.857020613 C7.32853214,0.384742061 6.918925,0.00141058496 6.41435357,0.00141058496 L0.928567857,0.00141058496 C0.423817857,0.00141058496 0.0142107143,0.384742061 0.0142107143,0.857020613 C0.0142107143,1.32943287 0.423817857,1.71279777 0.928567857,1.71279777" id="Fill-4"></path>
                <path d="M10.071425,5.1355688 L0.928567857,5.1355688 C0.423817857,5.1355688 0.0142107143,5.5189337 0.0142107143,5.99134596 C0.0142107143,6.46362451 0.423817857,6.84695599 0.928567857,6.84695599 L10.071425,6.84695599 C10.5769964,6.84695599 10.9858179,6.46362451 10.9858179,5.99134596 C10.9858179,5.5189337 10.5769964,5.1355688 10.071425,5.1355688" id="Fill-6"></path>
                <path d="M10.071425,10.2699008 L0.928567857,10.2699008 C0.423817857,10.2699008 0.0142107143,10.6522964 0.0142107143,11.1255109 C0.0142107143,11.5988591 0.423817857,11.981288 0.928567857,11.981288 L10.071425,11.981288 C10.5769964,11.981288 10.9858179,11.5988591 10.9858179,11.1255109 C10.9858179,10.6522964 10.5769964,10.2699008 10.071425,10.2699008" id="Fill-8"></path>
            </g>
        </g>
    </g>
</svg>