<?xml version="1.0" encoding="UTF-8"?>
<svg width="20px" height="25px" viewBox="0 0 20 25" version="1.1" xmlns="http://www.w3.org/2000/svg" xmlns:xlink="http://www.w3.org/1999/xlink">
    <!-- Generator: Sketch 49.1 (51147) - http://www.bohemiancoding.com/sketch -->
    <title>个人信息_red</title>
    <desc>Created with Sketch.</desc>
    <defs>
        <polygon id="path-1" points="0 0 18 0 18 21 0 21"></polygon>
    </defs>
    <g id="个人信息_red" stroke="none" stroke-width="1" fill="none" fill-rule="evenodd">
        <g id="Page-1" transform="translate(1.000000, 2.000000)">
            <mask id="mask-2" fill="white">
                <use xlink:href="#path-1"></use>
            </mask>
            <g id="Clip-2"></g>
            <path d="M13.9857485,14.0777678 C13.6081137,13.8444645 13.1550168,13.9221816 12.9284536,14.3111014 C12.7018905,14.6999909 12.777382,15.1666582 13.1550168,15.3999919 C14.8919718,16.6444381 16.1003383,18.3555821 16.4779436,20.3777769 C16.5534352,20.7666967 16.8554604,21 17.2330952,21 L17.3841669,21 C17.7618017,20.9222829 18.0638269,20.5333327 17.9883649,20.0666957 C17.5352385,17.6556115 16.1003383,15.5555781 13.9857485,14.0777678 M3.71488393,6.99994936 C3.71488393,3.96664202 6.05600739,1.55552742 9.00132886,1.55552742 C11.9466503,1.55552742 14.2877738,3.96664202 14.2877738,6.99994936 C14.2877738,9.95556996 11.9466503,12.3666542 9.07682042,12.4445232 L8.85025723,12.4445232 C5.98054533,12.3666542 3.71488393,9.95556996 3.71488393,6.99994936 M15.798195,6.99994936 C15.798195,3.11105485 12.777382,0 9.00132886,0 C5.2252757,0 2.20449217,3.11105485 2.20449217,6.99994936 C2.20449217,9.64448878 3.5638123,11.9000172 5.67837257,13.0666248 C2.80866067,14.2333539 0.61849084,16.8000547 0.0142928338,20.0666957 C-0.0611692286,20.4556155 0.165364461,20.9222829 0.61849084,21 L0.769562467,21 C1.14719728,21 1.44922254,20.7666967 1.5247141,20.3777769 C2.20449217,16.7221857 5.30076726,14.0777678 8.92583729,14.0000506 L9.07682042,14.0000506 C12.777382,14.0000506 15.798195,10.8888439 15.798195,6.99994936" id="Fill-1" fill="#FF3333" mask="url(#mask-2)"></path>
        </g>
    </g>
</svg>