<?xml version="1.0" encoding="UTF-8"?>
<svg width="20px" height="25px" viewBox="0 0 20 25" version="1.1" xmlns="http://www.w3.org/2000/svg" xmlns:xlink="http://www.w3.org/1999/xlink">
    <!-- Generator: Sketch 49.1 (51147) - http://www.bohemiancoding.com/sketch -->
    <title>設置ICON_red</title>
    <desc>Created with Sketch.</desc>
    <defs>
        <polygon id="path-1" points="0.0037026648 0.0024925816 21.9908174 0.0024925816 21.9908174 20.9700423 0.0037026648 20.9700423"></polygon>
    </defs>
    <g id="設置ICON_red" stroke="none" stroke-width="1" fill="none" fill-rule="evenodd">
        <g id="Page-1" transform="translate(10.000000, 12.500000) rotate(30.000000) translate(-10.000000, -12.500000) translate(-1.000000, 2.000000)">
            <g id="Group-3">
                <mask id="mask-2" fill="white">
                    <use xlink:href="#path-1"></use>
                </mask>
                <g id="Clip-2"></g>
                <path d="M14.2065818,19.6399073 C14.219356,19.6483197 14.2545621,19.662434 14.2915579,19.662434 L14.2957543,19.6623093 L16.9081386,18.2044918 C16.8449773,18.0563702 16.5565088,17.3387871 16.5565088,16.5900156 C16.5565088,14.3506803 18.303241,12.5153613 20.4931203,12.400796 C20.5245004,12.2251001 20.6955327,11.2364177 20.6955327,10.4946254 C20.6955327,9.75292656 20.5245004,8.76477374 20.4931203,8.58857938 C18.303241,8.47379599 16.5565088,6.63857047 16.5565088,4.39926632 C16.5565088,3.64949777 16.8456561,2.93085534 16.9083237,2.78404228 L14.3385201,1.34230193 C14.3357739,1.3421773 14.3317935,1.3419592 14.327844,1.3419592 C14.2840909,1.3419592 14.2430839,1.35788056 14.2297234,1.36722774 C14.186464,1.41206306 13.8138525,1.79333457 13.2790642,2.17357789 C12.4868791,2.73637166 11.7381386,3.02161647 11.0530222,3.02161647 C10.3610867,3.02161647 9.60592819,2.73060757 8.80902216,2.1566595 C8.27099411,1.76928116 7.896377,1.38062537 7.85336438,1.3351046 C7.83957195,1.32566395 7.79825638,1.30918175 7.75400954,1.30918175 L7.74475288,1.30946217 L5.08306143,2.78566246 C5.14671641,2.93543546 5.4343209,3.65170994 5.4343209,4.39926632 C5.4343209,6.63857047 3.68774306,8.47379599 1.49783282,8.58870401 C1.4662676,8.76455564 1.29511192,9.75292656 1.29511192,10.49475 C1.29511192,11.236293 1.4662676,12.2243212 1.49783282,12.4009206 C3.68774306,12.5154859 5.4343209,14.3505868 5.4343209,16.5898909 C5.4343209,17.341342 5.14397027,18.0613553 5.08201234,18.2061743 L7.60133633,19.6287218 C7.63250042,19.6296877 7.66335596,19.6221476 7.6908791,19.6069117 C7.73796466,19.5559384 8.11440224,19.1537915 8.65644151,18.7527663 C9.46423955,18.1549518 10.2318637,17.8517604 10.9379001,17.8517604 C11.6508791,17.8517604 12.4243966,18.1606536 13.2368847,18.7698093 C13.781917,19.1784993 14.1598973,19.5883108 14.2065818,19.6399073 M14.2915579,20.9700423 L14.2912802,20.9700423 C13.8913616,20.9700423 13.5026743,20.8030393 13.2515102,20.5232782 C12.9093223,20.1443746 11.8252438,19.1592752 10.9378076,19.1592752 C10.0565116,19.1592752 8.9557094,20.1500764 8.63956353,20.4971061 C8.38898569,20.7720378 8.00292118,20.9362055 7.60670519,20.9362055 C7.41811613,20.9362055 7.2399871,20.8997203 7.0773784,20.8274978 L7.04905302,20.8148791 L4.35172342,19.2917871 L4.32497167,19.2728435 C3.83393661,18.9255957 3.64722973,18.2468034 3.89034053,17.6936372 C3.89228443,17.6893999 4.13912875,17.1142055 4.13912875,16.5895482 C4.13912875,14.9975987 2.85667994,13.7025156 1.27980757,13.7025156 L1.18430968,13.7025156 L1.16672202,13.7027337 C0.715367181,13.7027337 0.347630856,13.2975645 0.229978682,12.670431 C0.220783731,12.6207663 1.2342216e-05,11.4316803 1.2342216e-05,10.4946254 C1.2342216e-05,9.55760163 0.220783731,8.36851558 0.229978682,8.31822774 C0.348957644,7.6833049 0.72471641,7.27545623 1.18430968,7.28667285 L1.27980757,7.28667285 C2.85655652,7.28667285 4.13912875,5.99130935 4.13912875,4.39926632 C4.13912875,3.87495178 3.89246957,3.299477 3.88984684,3.29402448 C3.64685947,2.74120104 3.83489313,2.06268917 4.32787209,1.71656306 L4.35582721,1.69693398 L7.20246676,0.117945846 L7.23214979,0.105358309 C7.3923209,0.0362514837 7.5680432,0.00132418398 7.75391697,0.00132418398 C8.14923815,0.00132418398 8.53591978,0.161877596 8.78878093,0.431076409 C9.12566171,0.787172849 10.1907641,1.71363427 11.0528987,1.71363427 C11.906363,1.71363427 12.9648931,0.805431009 13.3008791,0.455534866 C13.5522283,0.192037834 13.9365958,0.0340704748 14.327844,0.0340704748 C14.5176673,0.0340704748 14.6965369,0.0703063798 14.8592073,0.141999258 L14.8880572,0.154555638 L17.6375327,1.69708976 L17.6646547,1.71618917 C18.1566771,2.06293843 18.3436,2.74169955 18.1006126,3.29533309 C18.0984836,3.29935237 17.8517627,3.87495178 17.8517627,4.39939095 C17.8517627,5.99143398 19.1341498,7.28676632 20.710837,7.28676632 L20.8064892,7.28676632 C21.2653728,7.27620401 21.6415635,7.6833049 21.7606042,8.31835237 C21.7699226,8.36851558 21.9908174,9.55760163 21.9908174,10.4946254 C21.9908174,11.431431 21.7699226,12.6207663 21.7606042,12.6706491 C21.641687,13.3058212 21.2653728,13.7120809 20.8064892,13.7027337 L20.710837,13.7027337 C19.1341498,13.7027337 17.8517627,14.9978479 17.8517627,16.5897663 C17.8517627,17.1143301 18.0984836,17.6893999 18.1010137,17.6952574 C18.3436,18.2473331 18.1563377,18.9262188 17.6639759,19.2727188 L17.6363293,19.2920675 L14.8405705,20.8524859 L14.8114738,20.8650111 C14.6514569,20.9348969 14.4764135,20.9700423 14.2915579,20.9700423" id="Fill-1" stroke="#FF3333" stroke-width="0.2" fill="#FF3333" mask="url(#mask-2)"></path>
            </g>
            <path d="M10.9999352,8.36036693 C9.54461768,8.36036693 8.36047454,9.54452926 8.36047454,10.9997407 C8.36047454,12.4552114 9.54448802,13.6392441 10.9999352,13.6392441 C12.455512,13.6392441 13.6396551,12.4552114 13.6396551,10.9997407 C13.6396551,9.54452926 12.455512,8.36036693 10.9999352,8.36036693 M10.9999352,15 C8.79439888,15 7,13.2054424 7,11 C7,8.79442797 8.79439888,7 10.9999352,7 C13.2058604,7 15,8.79442797 15,11 C15,13.2054424 13.2058604,15 10.9999352,15" id="Fill-4" stroke="#FF3333" stroke-width="0.2" fill="#FF3333"></path>
        </g>
    </g>
</svg>