<?xml version="1.0" encoding="UTF-8"?>
<svg width="20px" height="25px" viewBox="0 0 20 25" version="1.1" xmlns="http://www.w3.org/2000/svg" xmlns:xlink="http://www.w3.org/1999/xlink">
    <!-- Generator: Sketch 49.1 (51147) - http://www.bohemiancoding.com/sketch -->
    <title>提款密碼_red</title>
    <desc>Created with Sketch.</desc>
    <defs>
        <polygon id="path-1" points="0 0 18 0 18 23 0 23"></polygon>
    </defs>
    <g id="提款密碼_red" stroke="none" stroke-width="1" fill="none" fill-rule="evenodd">
        <g id="Group-3" transform="translate(1.000000, 1.000000)">
            <mask id="mask-2" fill="white">
                <use xlink:href="#path-1"></use>
            </mask>
            <g id="Clip-2"></g>
            <path d="M16.4999268,16.0999102 C16.4999268,19.0639753 14.1494907,21.4666966 11.2500073,21.4666966 L6.74987549,21.4666966 C3.85045068,21.4666966 1.49995606,19.0639753 1.49995606,16.0999102 L1.49995606,11.4998802 C1.5004248,11.0766263 1.83595863,10.7336328 2.25000732,10.7331536 L15.7499927,10.7331536 C16.1640414,10.7336328 16.4994873,11.0766263 16.4999268,11.4998802 L16.4999268,16.0999102 Z M9,1.53333333 C12.31362,1.53333333 14.9997363,4.27925781 14.9997363,7.66654687 L14.9997363,9.19985026 L3.00014648,9.19985026 L3.00014648,7.66654687 C3.00014648,4.27925781 5.68640931,1.53333333 9,1.53333333 Z M16.4998096,9.33195052 L16.4998096,7.66654687 C16.4998096,3.43245052 13.1420396,0 9,0 C4.85796037,0 1.50019043,3.43245052 1.50019043,7.66654687 L1.50019043,9.33195052 C0.626947002,9.64826042 0.00108397379,10.4990807 0,11.4998802 L0,16.0999102 C0,19.9106927 3.02200174,23 6.74987549,23 L11.2500073,23 C14.9778811,23 18,19.9106927 18,16.0999102 L18,11.4998802 C17.9988281,10.4990807 17.3730237,9.64826042 16.4998096,9.33195052 Z" id="Fill-1" fill="#FF3333" mask="url(#mask-2)"></path>
        </g>
        <path d="M10.5,18 C9.67155609,18 9,17.3284439 9,16.5 C9,15.6715268 9.67155609,15 10.5,15 C11.3280045,15.0009082 11.9990918,15.6719955 12,16.5 C12,17.3284439 11.3284439,18 10.5,18 M10.4999829,13 C8.56692237,13 7,14.4327812 7,16.200125 C7,17.691125 8.11533372,18.9439687 9.62493591,19.29925 L9.62493591,20.200125 C9.62493591,20.641875 10.0166409,21 10.4999829,21 C10.9831882,21 11.3749274,20.641875 11.3749274,20.200125 L11.3749274,19.2984062 C12.8835383,18.9420937 13.9981885,17.6902187 14,16.2 C14,14.4327812 12.4330435,13 10.4999829,13" id="Fill-4" fill="#FF3333"></path>
    </g>
</svg>