<?xml version="1.0" encoding="UTF-8"?>
<svg width="20px" height="25px" viewBox="0 0 20 25" version="1.1" xmlns="http://www.w3.org/2000/svg" xmlns:xlink="http://www.w3.org/1999/xlink">
    <!-- Generator: Sketch 49.1 (51147) - http://www.bohemiancoding.com/sketch -->
    <title>推荐好友_red</title>
    <desc>Created with Sketch.</desc>
    <defs>
        <polygon id="path-1" points="0 0 20 0 20 21 0 21"></polygon>
    </defs>
    <g id="推荐好友_red" stroke="none" stroke-width="1" fill="none" fill-rule="evenodd">
        <g id="Page-1" transform="translate(0.000000, 2.000000)">
            <mask id="mask-2" fill="white">
                <use xlink:href="#path-1"></use>
            </mask>
            <g id="Clip-2"></g>
            <path d="M18.1623147,17.0333941 L15.7884708,19.3667274 L13.4147167,17.0333941 C13.1850285,16.7221918 13.1084857,16.6444444 13.1084857,16.4111415 C13.1084857,15.9445052 13.5678921,15.5555556 14.0273283,15.5555556 C14.2570166,15.5555556 14.4102218,15.6333333 14.5633972,15.7111415 L15.405697,16.2555252 C15.711928,16.4888889 16.0948215,16.4111415 16.3245397,16.1778082 L16.783946,15.7889193 C16.9371214,15.6333333 17.1668395,15.5555556 17.4730705,15.5555556 C18.0091394,15.5555556 18.3920328,15.9445052 18.3920328,16.4111415 C18.4685457,16.6444444 18.3153704,16.8778082 18.1623147,17.0333941 M17.4730705,14.0000608 C16.8604888,14.0000608 16.2479969,14.2333637 15.7884708,14.622283 L15.4822099,14.38898 C15.0228035,14.1556163 14.5633972,14.0000608 14.0273283,14.0000608 C12.6490793,14.0000608 11.5770613,15.0889497 11.5770613,16.4111415 C11.5770613,17.266697 11.9598352,17.7333637 12.2661858,18.1222526 C12.2661858,18.1222526 12.2661858,18.1999696 12.3426987,18.1999696 L14.7930854,20.5333333 C15.0993463,20.8444141 15.4822099,21 15.7884708,21 C16.1713344,21 16.477715,20.8444141 16.783946,20.5333333 L19.2343327,18.1222526 C19.6937391,17.6555859 20,17.0333941 20,16.4111415 C20,15.0889497 18.8514392,14.0000608 17.4730705,14.0000608 M3.76661465,6.99996962 C3.76661465,3.96666667 6.14033886,1.55555556 9.12667468,1.55555556 C12.1130105,1.55555556 14.4867347,3.96666667 14.4867347,6.99996962 C14.4867347,9.95558594 12.1130105,12.3666363 9.20321749,12.4445356 L8.97349934,12.4445356 C6.06382597,12.2889193 3.76661465,9.95558594 3.76661465,6.99996962 M16.0181591,6.99996962 C16.0181591,3.11108073 12.9553104,0 9.12667468,0 C5.29803901,0 2.23519029,3.11108073 2.23519029,6.99996962 C2.23519029,9.64450521 3.61343931,11.9000304 5.75744538,13.0666363 C2.847772,14.2333637 0.627103484,16.8000304 0.0144918652,20.066697 C-0.0620210259,20.4556163 0.167667203,20.922283 0.627103484,21 L0.780278823,21 C1.1631723,21 1.46940333,20.766697 1.54594614,20.3777778 C2.23519029,16.7221918 5.37458181,14.0777778 9.05013188,14.0000608 L9.20321749,14.0000608 C12.9553104,14.0000608 16.0181591,10.8111111 16.0181591,6.99996962" id="Fill-1" fill="#FF3333" mask="url(#mask-2)"></path>
        </g>
    </g>
</svg>