<?xml version="1.0" encoding="UTF-8"?>
<svg width="20px" height="25px" viewBox="0 0 20 25" version="1.1" xmlns="http://www.w3.org/2000/svg" xmlns:xlink="http://www.w3.org/1999/xlink">
    <!-- Generator: Sketch 49.1 (51147) - http://www.bohemiancoding.com/sketch -->
    <title>银行卡设置_red</title>
    <desc>Created with Sketch.</desc>
    <defs>
        <polygon id="path-1" points="5.57880056e-06 0.0226402926 19.9944491 0.0226402926 19.9944491 15.9375 5.57880056e-06 15.9375"></polygon>
    </defs>
    <g id="银行卡设置_red" stroke="none" stroke-width="1" fill="none" fill-rule="evenodd">
        <g id="Page-1" transform="translate(0.000000, 4.000000)">
            <g id="Group-3">
                <mask id="mask-2" fill="white">
                    <use xlink:href="#path-1"></use>
                </mask>
                <g id="Clip-2"></g>
                <path d="M2.26148396,1.46942055 C1.80167922,1.46942055 1.42815063,1.84782314 1.42815063,2.31297773 L1.42815063,13.6472813 C1.42815063,14.1123228 1.80167922,14.4907254 2.26148396,14.4907254 L17.7329484,14.4907254 C18.192781,14.4907254 18.5662817,14.1123228 18.5662817,13.6472813 L18.5662817,2.31297773 C18.5662817,1.84782314 18.192781,1.46942055 17.7329484,1.46942055 L2.26148396,1.46942055 Z M17.7329484,15.9375057 L2.26148396,15.9375057 C1.01476151,15.9375057 5.57880056e-06,14.9102716 5.57880056e-06,13.6472813 L5.57880056e-06,2.31297773 C5.57880056e-06,1.04987434 1.01476151,0.0226402926 2.26148396,0.0226402926 L17.7329484,0.0226402926 C18.9796987,0.0226402926 19.9944547,1.04987434 19.9944547,2.31297773 L19.9944547,13.6472813 C19.9944547,14.9102716 18.9796987,15.9375057 17.7329484,15.9375057 Z" id="Fill-1" fill="#FF3333" mask="url(#mask-2)"></path>
            </g>
            <path d="M15.3500521,8 L3.65004951,8 C3.29120451,8 3,7.55198344 3,6.99990234 C3,6.4479775 3.29120451,6 3.65004951,6 L15.3500521,6 C15.709481,6 16,6.4479775 16,6.99990234 C16,7.55198344 15.709481,8 15.3500521,8" id="Fill-4" fill="#FF3333"></path>
            <path d="M6.20009375,12 L3.8000625,12 C3.35840625,12 3,11.552921 3,10.9999023 C3,10.4469228 3.35840625,10 3.8000625,10 L6.20009375,10 C6.641625,10 7,10.4469228 7,10.9999023 C7,11.552921 6.641625,12 6.20009375,12" id="Fill-6" fill="#FF3333"></path>
        </g>
    </g>
</svg>